<?xml version="1.0" encoding="UTF-8"?>
<!-- Generator: Adobe Illustrator 16.0.0, SVG Export Plug-In . SVG Version: 6.00 Build 0)  -->
<!DOCTYPE svg PUBLIC "-//W3C//DTD SVG 1.1//EN" "http://www.w3.org/Graphics/SVG/1.1/DTD/svg11.dtd">
<svg version="1.1" id="Calque_1" xmlns="http://www.w3.org/2000/svg" xmlns:xlink="http://www.w3.org/1999/xlink" x="0px" y="0px" width="44.52px" height="39.904px" viewBox="0 0 44.52 39.904" enable-background="new 0 0 44.52 39.904" xml:space="preserve">
<g>
	<path fill="#3FA8F4" d="M13.624,31.196c0,0.378-0.309,0.687-0.688,0.687H9.673c-0.378,0-0.688-0.309-0.688-0.687V19.654   c0-0.392,0.309-0.699,0.688-0.699h3.264c0.378,0,0.688,0.308,0.688,0.699V31.196z M35.279,18.771c0-1.583-1.274-1.877-1.877-1.877   h-6.08c0,0,0.406-2.354,0.421-3.067c0.014-0.715-0.042-1.766-0.21-2.479c-0.364-1.583-0.995-2.745-1.863-3.417   c-0.854-0.659-1.556-0.645-2.157-0.435c-0.28,0.084-0.434,0.321-0.434,0.561c0.027,0.953-0.21,2.759-0.322,3.895   c-0.112,1.372-0.21,2.03-0.603,2.591c-0.378,0.573-2.354,3.403-2.676,3.838c-0.266,0.351-0.42,0.504-0.854,0.561   c-0.267,0.042-1.415,0.015-1.961,0.015s-0.842,0.392-0.842,0.783v9.021c0,0.771,0.253,1.105,0.995,1.105c0.756,0,1.4,2.06,5.1,2.06   h8.235V31.91h0.42c1.037,0,1.878-0.842,1.878-1.877c0-1.036-0.841-1.878-1.878-1.878h1.247c1.036,0,1.877-0.84,1.877-1.877   c0-1.036-0.841-1.877-1.877-1.877h0.91c1.037,0,1.877-0.84,1.877-1.877s-0.84-1.877-1.877-1.877h0.673   C34.438,20.648,35.279,19.808,35.279,18.771z"/>
</g>
</svg>