<?xml version="1.0" encoding="UTF-8"?>
<!-- Generator: Adobe Illustrator 16.0.0, SVG Export Plug-In . SVG Version: 6.00 Build 0)  -->
<!DOCTYPE svg PUBLIC "-//W3C//DTD SVG 1.1//EN" "http://www.w3.org/Graphics/SVG/1.1/DTD/svg11.dtd">
<svg version="1.1" id="Calque_1" xmlns="http://www.w3.org/2000/svg" xmlns:xlink="http://www.w3.org/1999/xlink" x="0px" y="0px" width="44.52px" height="39.905px" viewBox="0 0 44.52 39.905" enable-background="new 0 0 44.52 39.905" xml:space="preserve">
<g>
	<path d="M13.624,31.196c0,0.378-0.308,0.686-0.687,0.686H9.673c-0.378,0-0.687-0.308-0.687-0.686V19.654   c0-0.392,0.308-0.7,0.687-0.7h3.264c0.378,0,0.687,0.308,0.687,0.7V31.196z M35.279,18.771c0-1.583-1.275-1.877-1.877-1.877h-6.08   c0,0,0.406-2.354,0.42-3.068c0.014-0.714-0.042-1.765-0.21-2.479c-0.364-1.583-0.995-2.745-1.863-3.417   c-0.854-0.659-1.555-0.645-2.157-0.435c-0.28,0.084-0.434,0.322-0.434,0.561c0.028,0.953-0.21,2.759-0.322,3.894   c-0.112,1.373-0.21,2.031-0.602,2.591c-0.378,0.574-2.354,3.404-2.676,3.838c-0.266,0.351-0.42,0.504-0.854,0.561   c-0.266,0.042-1.415,0.014-1.961,0.014s-0.841,0.392-0.841,0.784v9.021c0,0.771,0.252,1.106,0.995,1.106   c0.756,0,1.4,2.059,5.099,2.059h8.236v-0.014h0.42c1.037,0,1.877-0.841,1.877-1.877c0-1.036-0.84-1.877-1.877-1.877h1.247   c1.036,0,1.877-0.84,1.877-1.877s-0.841-1.877-1.877-1.877h0.91c1.037,0,1.877-0.84,1.877-1.877s-0.84-1.877-1.877-1.877h0.673   C34.438,20.648,35.279,19.808,35.279,18.771z"/>
</g>
</svg>